<svg xmlns="http://www.w3.org/2000/svg" width="1080" height="1244" viewBox="0 0 1080 1244" role="img" xml:lang="en" aria-labelledby="title desc">
  <title id="title">Less filler. Same facts.</title>
  <desc id="desc">Illustrative rewrite, not a measured result. Before: We would like to highlight that preliminary subscription revenue grew 12% year over year in Brazil, excluding refunds. These figures have not yet been audited. After: Unaudited, preliminary subscription revenue in Brazil grew 12% year over year, excluding refunds. Seven facts retained: Preliminary; Subscription revenue; 12%; Year over year; Brazil; Excluding refunds; Unaudited.</desc>
  <rect width="1080" height="1244" rx="24" fill="#F5F1E8"/>
<text x="64" y="98" fill="#213044" font-family="Arial, Helvetica, sans-serif" font-size="66" font-weight="700" letter-spacing="-1.8">Less filler. Same facts.</text><text x="66" y="154" fill="#657181" font-family="Arial, Helvetica, sans-serif" font-size="27" font-weight="400" >Illustrative rewrite · not a measured result</text><rect x="40" y="202" width="1000" height="346" rx="18" fill="#EAE7DF"/>
<text x="68" y="251" fill="#657181" font-family="Arial, Helvetica, sans-serif" font-size="25" font-weight="700" letter-spacing="2.5">BEFORE</text><text x="68" y="311" fill="#213044" font-family="Arial, Helvetica, sans-serif" font-size="39" font-weight="400" >We would like to highlight that</text><text x="68" y="360" fill="#213044" font-family="Arial, Helvetica, sans-serif" font-size="39" font-weight="400" >preliminary subscription revenue grew</text><text x="68" y="409" fill="#213044" font-family="Arial, Helvetica, sans-serif" font-size="39" font-weight="400" >12% year over year in Brazil, excluding</text><text x="68" y="458" fill="#213044" font-family="Arial, Helvetica, sans-serif" font-size="39" font-weight="400" >refunds. These figures have not yet</text><text x="68" y="507" fill="#213044" font-family="Arial, Helvetica, sans-serif" font-size="39" font-weight="400" >been audited.</text><rect x="40" y="576" width="1000" height="320" rx="18" fill="#142130"/>
<rect x="40" y="604" width="5" height="264" rx="2.5" fill="#FFB86B"/>
<text x="68" y="625" fill="#FFB86B" font-family="Arial, Helvetica, sans-serif" font-size="25" font-weight="700" letter-spacing="2.5">AFTER</text><text x="68" y="685" fill="#F5F1E8" font-family="Arial, Helvetica, sans-serif" font-size="40" font-weight="400" >Unaudited, preliminary subscription</text><text x="68" y="736" fill="#F5F1E8" font-family="Arial, Helvetica, sans-serif" font-size="40" font-weight="400" >revenue in Brazil grew 12% year over</text><text x="68" y="787" fill="#F5F1E8" font-family="Arial, Helvetica, sans-serif" font-size="40" font-weight="400" >year, excluding refunds.</text><text x="64" y="960" fill="#213044" font-family="Arial, Helvetica, sans-serif" font-size="35" font-weight="700" >7 facts retained</text><rect x="64" y="992" width="250" height="58" rx="29" fill="#F5F1E8" stroke="#C5BCAE" stroke-width="1.5"/>
<path d="M83 1021l6 6 11-13" fill="none" stroke="#A85B27" stroke-width="2.5" stroke-linecap="round" stroke-linejoin="round"/>
<text x="111" y="1031" fill="#213044" font-family="Arial, Helvetica, sans-serif" font-size="28" font-weight="400" >Preliminary</text><rect x="330" y="992" width="474" height="58" rx="29" fill="#F5F1E8" stroke="#C5BCAE" stroke-width="1.5"/>
<path d="M349 1021l6 6 11-13" fill="none" stroke="#A85B27" stroke-width="2.5" stroke-linecap="round" stroke-linejoin="round"/>
<text x="377" y="1031" fill="#213044" font-family="Arial, Helvetica, sans-serif" font-size="28" font-weight="400" >Subscription revenue</text><rect x="820" y="992" width="196" height="58" rx="29" fill="#F5F1E8" stroke="#C5BCAE" stroke-width="1.5"/>
<path d="M839 1021l6 6 11-13" fill="none" stroke="#A85B27" stroke-width="2.5" stroke-linecap="round" stroke-linejoin="round"/>
<text x="867" y="1031" fill="#213044" font-family="Arial, Helvetica, sans-serif" font-size="28" font-weight="400" >12%</text><rect x="64" y="1068" width="300" height="58" rx="29" fill="#F5F1E8" stroke="#C5BCAE" stroke-width="1.5"/>
<path d="M83 1097l6 6 11-13" fill="none" stroke="#A85B27" stroke-width="2.5" stroke-linecap="round" stroke-linejoin="round"/>
<text x="111" y="1107" fill="#213044" font-family="Arial, Helvetica, sans-serif" font-size="28" font-weight="400" >Year over year</text><rect x="380" y="1068" width="222" height="58" rx="29" fill="#F5F1E8" stroke="#C5BCAE" stroke-width="1.5"/>
<path d="M399 1097l6 6 11-13" fill="none" stroke="#A85B27" stroke-width="2.5" stroke-linecap="round" stroke-linejoin="round"/>
<text x="427" y="1107" fill="#213044" font-family="Arial, Helvetica, sans-serif" font-size="28" font-weight="400" >Brazil</text><rect x="618" y="1068" width="398" height="58" rx="29" fill="#F5F1E8" stroke="#C5BCAE" stroke-width="1.5"/>
<path d="M637 1097l6 6 11-13" fill="none" stroke="#A85B27" stroke-width="2.5" stroke-linecap="round" stroke-linejoin="round"/>
<text x="665" y="1107" fill="#213044" font-family="Arial, Helvetica, sans-serif" font-size="28" font-weight="400" >Excluding refunds</text><rect x="64" y="1144" width="300" height="58" rx="29" fill="#F5F1E8" stroke="#C5BCAE" stroke-width="1.5"/>
<path d="M83 1173l6 6 11-13" fill="none" stroke="#A85B27" stroke-width="2.5" stroke-linecap="round" stroke-linejoin="round"/>
<text x="111" y="1183" fill="#213044" font-family="Arial, Helvetica, sans-serif" font-size="28" font-weight="400" >Unaudited</text></svg>
